<?xml version="1.0" encoding="UTF-8"?>
<!--Generator: Apple Native CoreSVG 341-->
<!DOCTYPE svg
PUBLIC "-//W3C//DTD SVG 1.1//EN"
       "http://www.w3.org/Graphics/SVG/1.1/DTD/svg11.dtd">
<svg version="1.1" xmlns="http://www.w3.org/2000/svg" xmlns:xlink="http://www.w3.org/1999/xlink" viewBox="0 0 138.806 138.905">
 <g>
  <rect height="138.905" opacity="0" width="138.806" x="0" y="0"/>
  <path d="M69.3779 29.4844C71.9678 29.4844 74.209 27.293 74.209 24.7031L74.209 4.83105C74.209 2.24121 71.9678 0 69.3779 0C66.7881 0 64.5967 2.24121 64.5967 4.83105L64.5967 24.7031C64.5967 27.293 66.7881 29.4844 69.3779 29.4844ZM97.6172 41.1885C99.4102 43.0312 102.598 43.0312 104.391 41.1885L118.436 27.1436C120.278 25.3008 120.278 22.2129 118.436 20.3701C116.593 18.5273 113.505 18.5273 111.662 20.3701L97.6172 34.415C95.7744 36.208 95.7744 39.3955 97.6172 41.1885ZM109.321 69.4277C109.321 72.0176 111.513 74.209 114.103 74.209L133.975 74.209C136.564 74.209 138.806 72.0176 138.806 69.4277C138.806 66.8379 136.564 64.5967 133.975 64.5967L114.103 64.5967C111.513 64.5967 109.321 66.8379 109.321 69.4277ZM41.1885 97.6172C39.3457 95.7744 36.208 95.7744 34.3652 97.6172L20.3203 111.662C18.5273 113.505 18.5273 116.643 20.3203 118.485C22.1631 120.278 25.3008 120.278 27.1436 118.485L41.1885 104.44C43.0312 102.598 43.0312 99.46 41.1885 97.6172ZM29.4844 69.4277C29.4844 66.8379 27.293 64.5967 24.6533 64.5967L4.83105 64.5967C2.19141 64.5967 0 66.8379 0 69.4277C0 72.0176 2.19141 74.209 4.83105 74.209L24.6533 74.209C27.293 74.209 29.4844 72.0176 29.4844 69.4277ZM41.1885 41.1885C43.0312 39.3955 43.0312 36.208 41.1885 34.415L27.1436 20.3701C25.3008 18.5273 22.1631 18.5273 20.3203 20.3701C18.5273 22.2129 18.5273 25.3008 20.3203 27.1436L34.3652 41.1885C36.208 43.0312 39.3457 43.0312 41.1885 41.1885Z" fill="white" fill-opacity="0.85"/>
  <path d="M88.5029 114.65L109.819 114.65C114.551 114.65 116.294 110.268 113.505 107.429L73.6611 67.585C70.5234 64.4473 65.6924 66.0908 65.6924 70.6729L65.6924 127.251C65.6924 131.285 70.0254 133.028 73.3623 129.741Z" fill="white" fill-opacity="0.85"/>
 </g>
</svg>
